<?xml version="1.0" encoding="utf-8"?>
<!-- Generator: Adobe Illustrator 17.0.0, SVG Export Plug-In . SVG Version: 6.00 Build 0)  -->
<!DOCTYPE svg PUBLIC "-//W3C//DTD SVG 1.1//EN" "http://www.w3.org/Graphics/SVG/1.1/DTD/svg11.dtd">
<svg version="1.1" id="图层_1" xmlns="http://www.w3.org/2000/svg" xmlns:xlink="http://www.w3.org/1999/xlink" x="0px" y="0px"
	 width="28px" height="28px" viewBox="0 0 28 28" enable-background="new 0 0 28 28" xml:space="preserve">
<g>
	<path fill="#AAAAAA" d="M19.834,9.672H8.166c-0.23,0-0.416,0.192-0.416,0.429s0.186,0.428,0.416,0.428h11.667
		c0.23,0,0.416-0.193,0.416-0.428S20.064,9.672,19.834,9.672L19.834,9.672z M20.25,7.503H7.75c-0.231,0-0.418,0.191-0.418,0.428
		c0,0.236,0.186,0.426,0.418,0.426h12.5c0.231,0,0.417-0.19,0.417-0.427C20.667,7.694,20.481,7.503,20.25,7.503L20.25,7.503z
		 M23.78,11.963l-1.643-6.144c-0.004-0.015-0.008-0.027-0.014-0.042c-0.259-0.676-0.636-1.126-1.64-1.126L7.49,4.687
		c-0.832,0-1.321,0.336-1.636,1.12C5.847,5.824,5.841,5.842,5.838,5.858l-1.63,6.274C4.081,12.256,4,12.412,4,12.593v9.831
		c0,0.47,0.549,0.925,1.006,0.925h18.335c0.458,0,0.659-0.455,0.659-0.925v-9.831C24,12.319,23.928,12.099,23.78,11.963
		L23.78,11.963z M19,18.904H9v-2.5h10V18.904L19,18.904z M17.75,12.654c0,0-0.884,0.011-1.32,0.011h-4.651
		c-0.436,0-1.529-0.011-1.529-0.011h-5l1.385-6.547c0.17-0.416,0.331-0.564,0.856-0.564l12.994-0.037
		c0.577,0,0.693,0.147,0.855,0.562l1.41,6.586H17.75L17.75,12.654z M17.75,12.654"/>
</g>
</svg>
