<?xml version="1.0" encoding="utf-8"?>
<!-- Generator: Adobe Illustrator 17.0.0, SVG Export Plug-In . SVG Version: 6.00 Build 0)  -->
<!DOCTYPE svg PUBLIC "-//W3C//DTD SVG 1.1//EN" "http://www.w3.org/Graphics/SVG/1.1/DTD/svg11.dtd">
<svg version="1.1" id="图层_1" xmlns="http://www.w3.org/2000/svg" xmlns:xlink="http://www.w3.org/1999/xlink" x="0px" y="0px"
	 width="28px" height="28px" viewBox="0 0 28 28" enable-background="new 0 0 28 28" xml:space="preserve">
<g>
	<path fill="#AAAAAA" d="M22.182,4H5.818C5.818,4,4,4,4,5.818v12.727c0,1.818,1.818,1.818,1.818,1.818h5.273v1.818L9.455,24h9.091
		l-2-1.818v-1.818h5.636c0,0,1.818,0,1.818-1.818V5.818C24,4,22.182,4,22.182,4z M23.091,15.782c0,0.946-0.909,0.946-0.909,0.946
		H5.818c0,0-0.909,0-0.909-0.946V5.855c0-0.946,0.909-0.946,0.909-0.946h16.364c0,0,0.909,0,0.909,0.946V15.782z"/>
	<path fill="#AAAAAA" d="M14,7.702c-1.87,0-3.327,1.17-5.115,3.068c1.54,1.622,2.832,3.07,5.115,3.07s3.96-1.833,5.115-3.036
		C17.932,9.395,16.255,7.702,14,7.702z M14,12.817c-1.128,0-2.045-0.918-2.045-2.046S12.872,8.726,14,8.726s2.046,0.918,2.046,2.045
		S15.128,12.817,14,12.817z"/>
	<circle fill="#AAAAAA" cx="14" cy="10.771" r="1.193"/>
</g>
</svg>
