<?xml version="1.0" encoding="utf-8"?>
<!-- Generator: Adobe Illustrator 17.0.0, SVG Export Plug-In . SVG Version: 6.00 Build 0)  -->
<!DOCTYPE svg PUBLIC "-//W3C//DTD SVG 1.1//EN" "http://www.w3.org/Graphics/SVG/1.1/DTD/svg11.dtd">
<svg version="1.1" id="图层_1" xmlns="http://www.w3.org/2000/svg" xmlns:xlink="http://www.w3.org/1999/xlink" x="0px" y="0px"
	 width="151.331px" height="40px" viewBox="0 0 151.331 40" enable-background="new 0 0 151.331 40" xml:space="preserve">
<g>
	<g>
		<g>
			<path fill="#6A85EA" d="M36.772,3.416c-2.252-1.805-5.359-1.522-7.602-1.103C26.92,2.732,26.583,4.42,26.583,4.42l-3.306,8.051
				l-3.31-8.051c0,0-0.335-1.688-2.577-2.107c-2.243-0.419-5.349-0.702-7.613,1.103c0,0-0.581,0.505-0.581,1.184
				c0,0.502,0,12.555,0,12.555h5.887V6.663l4.206,8.572c0,0,0.949,2.332,3.988,2.229c3.031,0.103,3.984-2.229,3.984-2.229
				l4.21-8.572v10.493h5.889c0,0,0-12.053,0-12.555C37.36,3.921,36.772,3.416,36.772,3.416z"/>
			<polygon fill="#6A85EA" points="45.695,2 39.162,2 48.565,9.738 52.031,7.006 			"/>
			<polygon fill="#6A85EA" points="39.162,17.156 46.463,17.156 52.031,12.583 48.565,9.738 			"/>
			<polygon fill="#6A85EA" points="57.597,17.156 64.9,17.156 55.493,9.738 52.031,12.583 			"/>
			<polygon fill="#6A85EA" points="58.362,2 52.031,7.006 55.493,9.738 64.9,2 			"/>
			<path fill="#6A85EA" d="M66.609,3.499c0,0-0.808,0.662-0.808,1.782c0,0.978,0,7.63,0,8.618c0,1.113,0.808,1.773,0.808,1.773
				c1.486,1.478,4.748,1.484,4.748,1.484h13.128v-3.292c0,0-9.402,0-11.013,0c-1.607,0-1.502-1.149-1.502-1.149V6.457
				c0,0-0.105-1.152,1.502-1.152c1.612,0,11.013,0,11.013,0v-3.29H71.358C71.358,2.016,68.095,2.027,66.609,3.499z"/>
			<polygon fill="#6A85EA" points="102.038,8.009 93.62,8.009 93.62,2.04 87.432,2.04 87.432,17.127 93.6,17.127 93.6,11.271 
				102.06,11.271 102.06,17.127 108.231,17.127 108.231,2.04 102.038,2.04 			"/>
			<rect x="111.948" y="2.016" fill="#6A85EA" width="6.191" height="15.082"/>
			<path fill="#6A85EA" d="M142.133,4.923c0,0,0.282-2.884-5.836-2.884c-6.108,0-14.493,0-14.493,0v15.087h6.123v-5.471
				c0,0,2.262,0,8.37,0c6.118,0,5.836-2.892,5.836-2.892V4.923z M134.049,8.285h-6.122V5.407h6.122c0,0,1.918-0.198,1.918,1.441
				C135.967,8.48,134.049,8.285,134.049,8.285z"/>
		</g>
		<g>
			<path fill="#6A85EA" d="M23.437,33.374v1.395h-13.43v-1.395h5.867v-8.223h-5.072v-1.441h11.854v1.441h-5.222v8.223H23.437z"/>
			<path fill="#6A85EA" d="M52.803,33.75v1.38h-13.19v-1.38h4.037V22.285h1.425V33.75h2.266V22.3h1.425V33.75H52.803z
				 M41.819,31.198c-0.345-1.38-1.185-3.691-1.921-5.417l1.275-0.404c0.75,1.71,1.651,3.961,2.041,5.311L41.819,31.198z
				 M52.593,26.037c-0.705,1.786-1.681,3.856-2.491,5.266l-1.155-0.6c0.795-1.366,1.816-3.557,2.371-5.282L52.593,26.037z"/>
			<path fill="#6A85EA" d="M74.532,29.923c-0.585,0.195-1.17,0.375-1.755,0.555v5.372h-1.29v-4.967l-2.356,0.72l-0.36-1.336
				c0.75-0.195,1.696-0.45,2.716-0.735v-3.151h-1.2c-0.18,0.795-0.39,1.515-0.615,2.086c-0.225-0.181-0.735-0.48-1.021-0.631
				c0.525-1.215,0.796-3.106,0.945-4.891l1.186,0.195c-0.075,0.645-0.15,1.291-0.255,1.921h0.96V22.09h1.29v2.971h1.395v1.321
				h-1.395v2.761l1.576-0.45L74.532,29.923z M82.485,24.506c0,0,0,0.48-0.015,0.66c-0.33,6.738-0.615,9.109-1.2,9.844
				c-0.315,0.451-0.615,0.585-1.095,0.661c-0.405,0.075-1.035,0.059-1.696,0.03c-0.015-0.405-0.165-0.976-0.39-1.366
				c0.63,0.059,1.185,0.059,1.47,0.059c0.24,0,0.39-0.059,0.54-0.269c0.435-0.496,0.75-2.626,1.02-8.328H80.7
				c-0.765,3.872-2.371,7.818-4.802,9.769c-0.27-0.256-0.765-0.615-1.156-0.825c2.416-1.726,3.992-5.312,4.742-8.943h-1.005
				c-0.66,2.52-1.965,5.266-3.556,6.677c-0.255-0.255-0.705-0.6-1.08-0.795c1.546-1.2,2.776-3.571,3.466-5.882h-1.065
				c-0.465,1.08-1.006,2.026-1.62,2.761c-0.225-0.195-0.78-0.615-1.081-0.795c1.215-1.32,2.071-3.452,2.566-5.672l1.261,0.24
				c-0.165,0.75-0.39,1.485-0.615,2.175H82.485z"/>
			<path fill="#6A85EA" d="M103.51,32.939v2.926h-1.2v-2.7c-1.381,0.225-2.686,0.45-3.736,0.645l-0.285-1.305
				c0.27-0.03,0.57-0.075,0.885-0.12v-8.419h-0.735v-1.26h5.657v1.26h-0.585v7.743l1.095-0.18l0.09,1.2L103.51,32.939z
				 M100.418,23.966v1.861h1.891v-1.861H100.418z M100.418,28.872h1.891v-1.891h-1.891V28.872z M100.418,32.189
				c0.6-0.09,1.246-0.195,1.891-0.3v-1.86h-1.891V32.189z M108.461,30.148c0.63,2.056,1.906,3.766,3.736,4.546
				c-0.315,0.256-0.72,0.795-0.915,1.14c-1.501-0.75-2.611-2.055-3.376-3.721c-0.525,1.35-1.501,2.731-3.256,3.886
				c-0.21-0.299-0.69-0.75-1.035-0.99c2.341-1.441,3.136-3.271,3.391-4.861H104.2v-1.261h2.926c0.015-0.21,0.015-0.42,0.015-0.601
				v-1.845h-2.596v-1.276h1.816c-0.285-0.645-0.87-1.59-1.456-2.28l1.141-0.555c0.6,0.69,1.215,1.59,1.485,2.22l-1.14,0.615h1.816
				c0.525-0.795,1.125-1.965,1.455-2.821l1.426,0.391c-0.466,0.84-0.99,1.725-1.456,2.43h1.876v1.276h-2.956v1.875
				c0,0.181,0,0.375-0.015,0.571h3.466v1.261H108.461z"/>
			<path fill="#6A85EA" d="M140.919,34.095c0,0.84-0.21,1.26-0.75,1.485c-0.555,0.225-1.425,0.255-2.791,0.255
				c-0.09-0.39-0.33-1.035-0.525-1.395c0.945,0.06,1.981,0.045,2.281,0.03c0.285-0.016,0.39-0.105,0.39-0.391v-9.798h-9.603v8.943
				c0.975-0.96,1.696-2.25,2.221-3.781c-0.66-0.87-1.366-1.771-2.011-2.536l0.81-0.81c0.525,0.6,1.08,1.275,1.606,1.95
				c0.24-0.915,0.435-1.891,0.57-2.91l1.245,0.134c-0.225,1.441-0.495,2.776-0.87,3.992c0.555,0.765,1.065,1.485,1.41,2.07
				l-0.885,0.96c-0.255-0.48-0.615-1.035-1.02-1.635c-0.525,1.335-1.215,2.49-2.056,3.39c-0.21-0.18-0.705-0.525-1.021-0.72v2.506
				h-1.395V22.96h12.395V34.095z M138.218,32.699c-0.255-0.571-0.615-1.245-1.065-1.965c-0.54,1.366-1.245,2.536-2.146,3.436
				c-0.225-0.18-0.78-0.585-1.08-0.765c1.065-0.976,1.846-2.341,2.386-3.962c-0.6-0.885-1.275-1.771-1.936-2.536l0.855-0.75
				c0.51,0.555,1.021,1.186,1.515,1.831c0.21-0.885,0.375-1.831,0.51-2.822l1.246,0.135c-0.195,1.441-0.465,2.761-0.825,3.977
				c0.63,0.916,1.155,1.816,1.485,2.551L138.218,32.699z"/>
		</g>
	</g>
</g>
</svg>
