<?xml version="1.0" encoding="utf-8"?>
<!-- Generator: Adobe Illustrator 16.0.0, SVG Export Plug-In . SVG Version: 6.00 Build 0)  -->
<!DOCTYPE svg PUBLIC "-//W3C//DTD SVG 1.1//EN" "http://www.w3.org/Graphics/SVG/1.1/DTD/svg11.dtd">
<svg version="1.1" id="图层_1" xmlns="http://www.w3.org/2000/svg" xmlns:xlink="http://www.w3.org/1999/xlink" x="0px" y="0px"
	 width="30px" height="30px" viewBox="0 0 30 30" enable-background="new 0 0 30 30" xml:space="preserve">
<g>
	<path fill="#AAAAAA" d="M22.137,21.184c-0.286,0.395-0.604,0.766-0.948,1.111C19.518,23.967,17.209,25,14.659,25
		s-4.857-1.033-6.528-2.705c-1.671-1.67-2.705-3.979-2.705-6.528s1.034-4.858,2.704-6.53c1.626-1.625,3.855-2.648,6.324-2.702
		l-0.065,4.837c-1.107,0.068-2.105,0.545-2.843,1.283c-0.796,0.796-1.289,1.896-1.289,3.112s0.493,2.315,1.289,3.112
		c0.797,0.797,1.898,1.291,3.113,1.291c1.216,0,2.315-0.494,3.112-1.291c0.048-0.046,0.093-0.095,0.137-0.144L22.137,21.184
		L22.137,21.184L22.137,21.184z M15.341,5h-0.045l-0.064,4.833c0.036-0.002,0.073-0.002,0.109-0.002
		c0.946,0,1.824,0.298,2.542,0.808L20.61,6.65C19.116,5.61,17.3,5,15.341,5L15.341,5L15.341,5z M20.871,8.202l-2.733,3.996
		c0.11,0.089,0.215,0.186,0.316,0.287c0.796,0.796,1.289,1.896,1.289,3.112c0,1.027-0.352,1.973-0.941,2.721l4.202,2.432
		c0.992-1.471,1.57-3.244,1.57-5.152c0-2.549-1.034-4.857-2.704-6.528C21.559,8.756,21.224,8.467,20.871,8.202L20.871,8.202z
		 M20.871,8.202"/>
</g>
</svg>
