<?xml version="1.0" encoding="utf-8"?>
<!-- Generator: Adobe Illustrator 16.0.0, SVG Export Plug-In . SVG Version: 6.00 Build 0)  -->
<!DOCTYPE svg PUBLIC "-//W3C//DTD SVG 1.1//EN" "http://www.w3.org/Graphics/SVG/1.1/DTD/svg11.dtd">
<svg version="1.1" id="图层_1" xmlns="http://www.w3.org/2000/svg" xmlns:xlink="http://www.w3.org/1999/xlink" x="0px" y="0px"
	 width="30px" height="30px" viewBox="0 0 30 30" enable-background="new 0 0 30 30" xml:space="preserve">
<g>
	<path fill="#AAAAAA" d="M23.594,21.069c-0.037-0.027-0.08-0.057-0.132-0.086c-0.217-0.08-0.391-0.214-0.526-0.396
		c-0.133-0.186-0.2-0.4-0.2-0.648c0-0.252,0.08-0.479,0.239-0.679c0.16-0.196,0.351-0.337,0.575-0.416
		c0.059-0.023,0.114-0.068,0.169-0.136c0.054-0.069,0.073-0.166,0.059-0.288c-0.028-0.21-0.085-0.418-0.168-0.625
		c-0.083-0.206-0.179-0.361-0.287-0.462c-0.059-0.057-0.128-0.09-0.212-0.096c-0.083-0.009-0.153,0.006-0.211,0.042
		c-0.218,0.101-0.453,0.144-0.707,0.125c-0.253-0.02-0.466-0.113-0.64-0.288c-0.173-0.174-0.278-0.377-0.315-0.608
		c-0.035-0.231-0.007-0.452,0.087-0.662c0.015-0.028,0.029-0.077,0.044-0.147c0.015-0.068,0.004-0.132-0.032-0.188
		c-0.059-0.095-0.137-0.181-0.234-0.261c-0.096-0.081-0.203-0.146-0.32-0.197c-0.115-0.05-0.233-0.091-0.353-0.119
		c-0.12-0.029-0.23-0.044-0.331-0.044c-0.067,0-0.13,0.031-0.19,0.093c-0.062,0.062-0.107,0.12-0.136,0.179
		c-0.079,0.217-0.218,0.396-0.413,0.537c-0.195,0.142-0.42,0.211-0.674,0.211c-0.245,0-0.459-0.073-0.64-0.221
		c-0.182-0.149-0.313-0.32-0.392-0.516c-0.021-0.065-0.06-0.129-0.113-0.19c-0.055-0.063-0.13-0.093-0.223-0.093
		c-0.072,0-0.171,0.013-0.293,0.037c-0.124,0.026-0.25,0.063-0.381,0.114c-0.13,0.052-0.251,0.115-0.363,0.19
		c-0.113,0.076-0.19,0.164-0.234,0.267c-0.021,0.042-0.025,0.095-0.016,0.151c0.011,0.059,0.024,0.109,0.039,0.153
		c0.006,0.043,0.016,0.114,0.025,0.217c0.012,0.101,0.012,0.213,0,0.335c-0.01,0.124-0.035,0.249-0.075,0.376
		s-0.104,0.233-0.19,0.321c-0.181,0.172-0.389,0.276-0.624,0.309c-0.236,0.033-0.462,0.005-0.679-0.083
		c-0.065-0.021-0.125-0.035-0.179-0.042c-0.054-0.007-0.111,0.007-0.169,0.042c-0.072,0.044-0.139,0.112-0.201,0.202
		c-0.061,0.091-0.116,0.19-0.163,0.3c-0.047,0.107-0.085,0.22-0.114,0.337c-0.028,0.115-0.043,0.22-0.043,0.313
		c0,0.087,0.022,0.171,0.066,0.256c0.043,0.083,0.097,0.135,0.161,0.154c0.217,0.088,0.412,0.225,0.586,0.414
		c0.174,0.188,0.26,0.41,0.26,0.662c0,0.247-0.086,0.469-0.26,0.669c-0.174,0.198-0.369,0.342-0.586,0.428
		c-0.124,0.044-0.195,0.146-0.217,0.305c-0.015,0.088-0.007,0.198,0.021,0.332c0.029,0.134,0.07,0.264,0.125,0.391
		c0.055,0.125,0.116,0.242,0.185,0.349c0.069,0.104,0.144,0.171,0.223,0.2c0.102,0.042,0.203,0.05,0.304,0.021
		c0.159-0.05,0.314-0.079,0.467-0.088c0.131-0.006,0.268,0.007,0.413,0.039c0.145,0.033,0.267,0.103,0.369,0.212
		c0.167,0.181,0.259,0.379,0.276,0.593c0.019,0.213-0.013,0.401-0.092,0.569c-0.058,0.124-0.085,0.22-0.082,0.288
		c0.005,0.068,0.024,0.129,0.06,0.179c0.051,0.072,0.127,0.146,0.228,0.217c0.102,0.073,0.216,0.137,0.342,0.19
		c0.127,0.056,0.254,0.1,0.381,0.135C17.015,24.982,17.129,25,17.229,25c0.088,0,0.168-0.02,0.238-0.059
		c0.072-0.041,0.127-0.104,0.164-0.19c0.079-0.218,0.218-0.407,0.418-0.569c0.198-0.165,0.422-0.246,0.667-0.246
		c0.254,0,0.478,0.081,0.668,0.246c0.191,0.162,0.328,0.354,0.407,0.579h0.011c0.022,0.057,0.063,0.112,0.12,0.164
		C19.981,24.974,20.042,25,20.107,25c0.094,0,0.203-0.015,0.325-0.042c0.124-0.029,0.242-0.068,0.354-0.121
		c0.112-0.05,0.216-0.107,0.31-0.167c0.094-0.063,0.164-0.122,0.206-0.18c0.095-0.146,0.105-0.289,0.033-0.435
		c-0.095-0.21-0.127-0.431-0.099-0.662c0.029-0.232,0.132-0.438,0.306-0.62c0.079-0.086,0.176-0.148,0.287-0.184
		c0.111-0.036,0.224-0.059,0.335-0.07c0.113-0.012,0.224-0.007,0.332,0.012c0.109,0.018,0.2,0.037,0.272,0.059
		c0.079,0.029,0.151,0.044,0.216,0.044c0.065,0,0.142-0.023,0.229-0.067c0.086-0.042,0.167-0.113,0.239-0.216
		c0.071-0.102,0.133-0.215,0.184-0.342c0.052-0.126,0.088-0.253,0.109-0.375c0.022-0.122,0.025-0.228,0.011-0.313
		C23.727,21.218,23.673,21.135,23.594,21.069L23.594,21.069z M20.89,20.847c-0.123,0.286-0.291,0.537-0.505,0.755
		c-0.214,0.217-0.466,0.388-0.756,0.511c-0.288,0.122-0.596,0.185-0.922,0.185c-0.325,0-0.631-0.063-0.918-0.185
		c-0.284-0.123-0.535-0.294-0.748-0.511c-0.214-0.218-0.383-0.471-0.506-0.755c-0.123-0.287-0.185-0.591-0.185-0.917
		c0-0.325,0.062-0.631,0.185-0.918c0.123-0.284,0.292-0.537,0.506-0.748c0.212-0.214,0.463-0.383,0.748-0.507
		c0.286-0.122,0.593-0.184,0.918-0.184c0.324,0,0.634,0.062,0.922,0.184c0.291,0.124,0.542,0.293,0.756,0.507
		c0.214,0.211,0.382,0.464,0.505,0.748c0.123,0.287,0.185,0.591,0.185,0.918C21.074,20.254,21.013,20.56,20.89,20.847L20.89,20.847z
		 M20.89,20.847"/>
	<path fill="#AAAAAA" d="M13.668,20.174c0.014-0.022,0.027-0.044,0.039-0.068c0.003-0.01,0.007-0.02,0.01-0.029
		c0.009-0.03,0.018-0.062,0.023-0.093c0.001-0.003,0.001-0.006,0.002-0.01c0.002-0.029,0.004-0.059,0.003-0.088
		c0-0.03,0-0.063-0.003-0.094l0,0c-0.012-0.056-0.026-0.109-0.046-0.161c0,0,0-0.002,0-0.002c-0.002-0.005-0.004-0.01-0.007-0.013
		c-0.012-0.026-0.024-0.053-0.037-0.077c-0.027-0.049-0.055-0.099-0.083-0.147c-0.059-0.1-0.121-0.197-0.177-0.298
		c-0.145-0.261-0.263-0.541-0.272-0.844c-0.01-0.298,0.087-0.631,0.26-0.875c0.331-0.471,0.845-0.737,1.408-0.824
		c0.115-0.018,0.23-0.006,0.327,0.038c0.04-0.021,0.078-0.043,0.115-0.067c0.01-0.005,0.019-0.011,0.028-0.016
		c0-0.002,0.001-0.002,0.001-0.002c0.015-0.013,0.029-0.027,0.043-0.042c0.014-0.021,0.041-0.063,0.051-0.082
		c0.001-0.001,0.003-0.005,0.004-0.01c0,0,0,0,0,0c0.025-0.073,0.043-0.146,0.055-0.221c0.002-0.01,0.004-0.024,0.005-0.038
		c0.004-0.035,0.008-0.073,0.012-0.108c0.01-0.093,0.021-0.188,0.033-0.28c-0.004-0.122,0.004-0.246,0.028-0.366
		c0.065-0.317,0.278-0.597,0.558-0.757h0.001c0.058-0.107,0.154-0.192,0.276-0.213c0.128-0.021,0.257-0.041,0.386-0.052
		c0.022-0.012,0.047-0.023,0.073-0.031c0.341-0.115,0.724-0.032,0.967,0.241c0.078,0.088,0.146,0.182,0.21,0.278
		c0.122,0.076,0.229,0.166,0.332,0.259c0.029,0.018,0.06,0.032,0.09,0.047c0.015,0.007,0.029,0.015,0.043,0.021
		c0.028,0.01,0.058,0.02,0.085,0.029c0.031,0.008,0.135,0.024,0.13,0.026c0.021,0.001,0.043,0.001,0.063,0
		c0.021-0.005,0.043-0.011,0.063-0.016c0.014-0.005,0.034-0.015,0.051-0.021c0.007-0.003,0.015-0.008,0.022-0.011
		c0.048-0.026,0.094-0.055,0.138-0.086c0.009-0.008,0.028-0.022,0.041-0.031c0.011-0.008,0.021-0.018,0.031-0.026
		c0.051-0.044,0.102-0.088,0.15-0.132c0.182-0.171,0.393-0.332,0.623-0.432c0.298-0.127,0.584-0.193,0.908-0.142
		c0.132,0.021,0.251,0.07,0.357,0.137v-4.116L15.211,5H8.227C7.212,5,6.389,5.746,6.389,6.665v13.986
		c0,0.919,0.823,1.665,1.838,1.665h4.879c-0.073-0.251-0.119-0.51-0.119-0.767c0-0.326,0.063-0.703,0.263-0.972
		c0.091-0.122,0.186-0.209,0.303-0.302C13.593,20.244,13.634,20.212,13.668,20.174C13.668,20.174,13.668,20.174,13.668,20.174
		L13.668,20.174z M14.032,6.175c0.379,0,0.687,0.308,0.687,0.688c0,0.379-0.307,0.687-0.687,0.687c-0.379,0-0.687-0.308-0.687-0.687
		C13.346,6.483,13.653,6.175,14.032,6.175L14.032,6.175z M8.335,7.55c-0.379,0-0.687-0.308-0.687-0.687
		c0-0.381,0.307-0.688,0.687-0.688s0.687,0.308,0.687,0.688C9.022,7.243,8.714,7.55,8.335,7.55L8.335,7.55z M11.184,7.55
		c-0.379,0-0.687-0.308-0.687-0.687c0-0.381,0.308-0.688,0.687-0.688c0.379,0,0.687,0.308,0.687,0.688
		C11.871,7.243,11.563,7.55,11.184,7.55L11.184,7.55z M11.184,7.55"/>
</g>
</svg>
