<?xml version="1.0" encoding="utf-8"?>
<!-- Generator: Adobe Illustrator 16.0.0, SVG Export Plug-In . SVG Version: 6.00 Build 0)  -->
<!DOCTYPE svg PUBLIC "-//W3C//DTD SVG 1.1//EN" "http://www.w3.org/Graphics/SVG/1.1/DTD/svg11.dtd">
<svg version="1.1" id="图层_1" xmlns="http://www.w3.org/2000/svg" xmlns:xlink="http://www.w3.org/1999/xlink" x="0px" y="0px"
	 width="30px" height="30px" viewBox="0 0 30 30" enable-background="new 0 0 30 30" xml:space="preserve">
<g>
	<path fill="#AAAAAA" d="M14.142,5.239c-0.697,0-0.59,0.213-0.966,0.267c-0.375,0.052,0.076-0.054-1.051,0.159
		c-1.127,0.212-1.524,1.647-1.578,2.178c-0.054,0.532-0.066,2.026-0.031,2.822c0.107,0.479-0.269,0.479-0.269,0.479
		c-0.675-0.042-0.372,2.041-0.372,2.041c0.098,0.513-0.034,0.77,0.965,1.167c0.477,1.343,1.688,2.021,1.688,2.021
		s0.061,0.863,0.079,1.475c-0.102-0.05,0.326,1.57-2.78,2.021c-3.105,0.455-3.701,1.453-4.285,2.008
		C4.957,22.43,5.001,24.99,5.001,24.99H25c0,0-0.127-2.561-0.713-3.113c-0.586-0.555-1.223-1.553-4.328-2.008
		c-3.106-0.451-2.556-2.025-2.577-2.121c0.005-0.243,0.114-1.269,0.114-1.269s1-0.824,1.477-2.168
		c0.749-0.467,1.034-0.532,1.158-1.073c0,0,0.253-2.041-0.552-2.041c0,0-0.335,0.054-0.228-0.425
		c0.106-0.479,0.07-1.973,0.018-2.505c-0.055-0.53,0.103-2.049-1.024-2.262c-0.769-0.142-0.858,0.073-1.233,0.021
		C16.735,5.973,16.288,5.01,15.59,5.01L14.142,5.239L14.142,5.239z M14.142,5.239"/>
</g>
</svg>
