<?xml version="1.0" encoding="utf-8"?>
<!-- Generator: Adobe Illustrator 16.0.0, SVG Export Plug-In . SVG Version: 6.00 Build 0)  -->
<!DOCTYPE svg PUBLIC "-//W3C//DTD SVG 1.1//EN" "http://www.w3.org/Graphics/SVG/1.1/DTD/svg11.dtd">
<svg version="1.1" id="图层_1" xmlns="http://www.w3.org/2000/svg" xmlns:xlink="http://www.w3.org/1999/xlink" x="0px" y="0px"
	 width="30px" height="30px" viewBox="0 0 30 30" enable-background="new 0 0 30 30" xml:space="preserve">
<g>
	<path fill="#FFFFFF" d="M20.833,10.671H9.167c-0.23,0-0.417,0.193-0.417,0.429c0,0.236,0.187,0.428,0.417,0.428h11.666
		c0.23,0,0.417-0.193,0.417-0.428C21.25,10.865,21.063,10.671,20.833,10.671L20.833,10.671z M21.25,8.502H8.75
		c-0.231,0-0.418,0.191-0.418,0.428c0,0.236,0.187,0.426,0.418,0.426h12.5c0.231,0,0.418-0.19,0.418-0.427
		C21.668,8.694,21.481,8.502,21.25,8.502L21.25,8.502z M24.78,12.963l-1.644-6.144c-0.004-0.016-0.009-0.027-0.014-0.042
		C22.863,6.1,22.486,5.65,21.482,5.65L8.489,5.687c-0.831,0-1.32,0.335-1.636,1.12C6.848,6.824,6.841,6.842,6.838,6.858
		l-1.631,6.273C5.081,13.255,5,13.411,5,13.593v9.831c0,0.471,0.549,0.925,1.006,0.925h18.335c0.458,0,0.659-0.454,0.659-0.925
		v-9.831C25,13.319,24.929,13.099,24.78,12.963L24.78,12.963z M20,19.904H10v-2.5h10V19.904L20,19.904z M18.75,13.654
		c0,0-0.884,0.011-1.32,0.011h-4.651c-0.437,0-1.528-0.011-1.528-0.011h-5l1.385-6.548c0.17-0.416,0.332-0.563,0.856-0.563
		l12.994-0.038c0.577,0,0.693,0.147,0.855,0.563l1.409,6.586H18.75L18.75,13.654z M18.75,13.654"/>
</g>
</svg>
