<?xml version="1.0" encoding="utf-8"?>
<!-- Generator: Adobe Illustrator 16.0.0, SVG Export Plug-In . SVG Version: 6.00 Build 0)  -->
<!DOCTYPE svg PUBLIC "-//W3C//DTD SVG 1.1//EN" "http://www.w3.org/Graphics/SVG/1.1/DTD/svg11.dtd">
<svg version="1.1" id="图层_1" xmlns="http://www.w3.org/2000/svg" xmlns:xlink="http://www.w3.org/1999/xlink" x="0px" y="0px"
	 width="30px" height="30px" viewBox="0 0 30 30" enable-background="new 0 0 30 30" xml:space="preserve">
<g>
	<path fill="#FFFFFF" d="M23.182,5H6.818C6.818,5,5,5,5,6.817v12.728c0,1.818,1.818,1.818,1.818,1.818h5.274v1.818L10.454,25h9.091
		l-1.999-1.818v-1.818h5.636c0,0,1.818,0,1.818-1.818V6.817C25,5,23.182,5,23.182,5z M24.091,16.781
		c0,0.946-0.909,0.946-0.909,0.946H6.818c0,0-0.909,0-0.909-0.946V6.855c0-0.946,0.909-0.946,0.909-0.946h16.364
		c0,0,0.909,0,0.909,0.946V16.781z"/>
	<path fill="#FFFFFF" d="M15,8.702c-1.87,0-3.327,1.17-5.115,3.068c1.54,1.623,2.833,3.069,5.115,3.069s3.96-1.833,5.115-3.035
		C18.933,10.395,17.255,8.702,15,8.702z M15,13.816c-1.128,0-2.046-0.917-2.046-2.045S13.872,9.726,15,9.726
		s2.046,0.917,2.046,2.045S16.128,13.816,15,13.816z"/>
	<circle fill="#FFFFFF" cx="15" cy="11.771" r="1.194"/>
</g>
</svg>
