<?xml version="1.0" encoding="utf-8"?>
<!-- Generator: Adobe Illustrator 16.0.0, SVG Export Plug-In . SVG Version: 6.00 Build 0)  -->
<!DOCTYPE svg PUBLIC "-//W3C//DTD SVG 1.1//EN" "http://www.w3.org/Graphics/SVG/1.1/DTD/svg11.dtd">
<svg version="1.1" id="图层_1" xmlns="http://www.w3.org/2000/svg" xmlns:xlink="http://www.w3.org/1999/xlink" x="0px" y="0px"
	 width="30px" height="30px" viewBox="0 0 30 30" enable-background="new 0 0 30 30" xml:space="preserve">
<g>
	<path fill="#AAAAAA" d="M21.511,19.455l-0.029-7.625c0-1.175-0.718-1.636-1.691-2.879c-0.743-0.949-2.045-1.138-2.881-1.899
		C15.978,6.203,15.526,5,15.021,5c-0.446,0-0.955,1.166-1.844,1.968c-0.864,0.78-2.102,1.017-2.896,2.005
		c-1.009,1.258-1.76,1.567-1.76,2.856l0.028,7.616c-1.466,0.01-2.045,1.677-2.045,2.494h16.99
		C23.495,21.15,22.843,19.57,21.511,19.455L21.511,19.455L21.511,19.455z M15.03,25c1.22,0,2.23-0.881,2.445-2.038h-4.892
		C12.798,24.119,13.81,25,15.03,25L15.03,25L15.03,25z M15.03,25"/>
</g>
</svg>
