<?xml version="1.0" encoding="utf-8"?>
<!-- Generator: Adobe Illustrator 16.0.0, SVG Export Plug-In . SVG Version: 6.00 Build 0)  -->
<!DOCTYPE svg PUBLIC "-//W3C//DTD SVG 1.1//EN" "http://www.w3.org/Graphics/SVG/1.1/DTD/svg11.dtd">
<svg version="1.1" id="图层_1" xmlns="http://www.w3.org/2000/svg" xmlns:xlink="http://www.w3.org/1999/xlink" x="0px" y="0px"
	 width="30px" height="30px" viewBox="0 0 30 30" enable-background="new 0 0 30 30" xml:space="preserve">
<g>
	<path fill="#AAAAAA" d="M24.619,8.292c0.75,1.813,0.393,3.975-1.08,5.448c-1.622,1.623-4.073,1.875-5.978,0.801l-1.377,1.504
		l0.981,0.985l0.587-0.587c0.302-0.301,0.787-0.301,1.087,0l4.764,4.811c0.3,0.3,0.3,0.788,0,1.088l-2.175,2.174
		c-0.299,0.3-0.787,0.3-1.087,0l-4.762-4.811c-0.3-0.301-0.3-0.788,0-1.088l0.536-0.535l-0.936-0.939l-6.587,7.196
		c-0.6,0.601-1.574,0.601-2.175,0l-0.543-0.544c-0.6-0.601-0.6-1.574,0-2.173l7.503-6.286l-4.983-4.995l-1.573-0.002L5,7.411
		l1.466-1.469l2.997,1.833l0.02,1.542l5.041,5.062l1.467-1.229c-1.434-1.955-1.284-4.707,0.483-6.475
		c1.467-1.466,3.616-1.83,5.424-1.093l-3.231,3.186l2.717,2.717L24.619,8.292L24.619,8.292z M7.679,22.387
		c-0.301-0.3-0.788-0.3-1.087,0c-0.301,0.302-0.301,0.787,0,1.088c0.299,0.299,0.786,0.299,1.087,0
		C7.979,23.173,7.979,22.688,7.679,22.387L7.679,22.387z M7.679,22.387"/>
</g>
</svg>
