<?xml version="1.0" encoding="utf-8"?>
<!-- Generator: Adobe Illustrator 17.0.0, SVG Export Plug-In . SVG Version: 6.00 Build 0)  -->
<!DOCTYPE svg PUBLIC "-//W3C//DTD SVG 1.1//EN" "http://www.w3.org/Graphics/SVG/1.1/DTD/svg11.dtd">
<svg version="1.1" id="图层_1" xmlns="http://www.w3.org/2000/svg" xmlns:xlink="http://www.w3.org/1999/xlink" x="0px" y="0px"
	 width="28px" height="28px" viewBox="0 0 28 28" enable-background="new 0 0 28 28" xml:space="preserve">
<g>
	<path fill="#AAAAAA" d="M23.619,7.292c0.75,1.813,0.392,3.975-1.08,5.448c-1.621,1.622-4.073,1.874-5.977,0.801l-1.378,1.504
		l0.983,0.985l0.586-0.586c0.301-0.301,0.787-0.301,1.087,0l4.764,4.81c0.3,0.3,0.3,0.787,0,1.087l-2.175,2.175
		c-0.3,0.3-0.787,0.3-1.087,0l-4.762-4.812c-0.3-0.3-0.3-0.787,0-1.087l0.535-0.535l-0.936-0.939l-6.587,7.195
		c-0.6,0.602-1.574,0.602-2.174,0l-0.543-0.543c-0.6-0.601-0.6-1.573,0-2.173l7.503-6.285L7.394,9.34L5.821,9.338L4,6.41
		l1.466-1.469l2.996,1.833l0.02,1.54l5.04,5.062l1.467-1.229c-1.434-1.954-1.284-4.707,0.483-6.474
		c1.466-1.466,3.616-1.829,5.423-1.093l-3.23,3.186l2.717,2.717L23.619,7.292L23.619,7.292z M6.679,21.386
		c-0.3-0.3-0.787-0.3-1.087,0c-0.3,0.301-0.3,0.787,0,1.087c0.3,0.3,0.787,0.3,1.087,0C6.978,22.173,6.978,21.688,6.679,21.386
		L6.679,21.386z M6.679,21.386"/>
</g>
</svg>
